<?xml version="1.0" encoding="utf-8"?>
<!-- Generator: Adobe Illustrator 17.0.2, SVG Export Plug-In . SVG Version: 6.00 Build 0)  -->
<!DOCTYPE svg PUBLIC "-//W3C//DTD SVG 1.1//EN" "http://www.w3.org/Graphics/SVG/1.1/DTD/svg11.dtd">
<svg version="1.1" id="Layer_1" xmlns="http://www.w3.org/2000/svg" xmlns:xlink="http://www.w3.org/1999/xlink" x="0px" y="0px"
	 width="110px" height="80px" viewBox="0 0 110 80" enable-background="new 0 0 110 80" xml:space="preserve">
<g>
	<g>
		<path fill="#CACACA" d="M80.131,14.265c-0.002,0.002-0.004,0.005-0.007,0.007C73.146,7.418,64.073,3.992,55,3.992
			s-18.146,3.426-25.124,10.28c-0.002-0.002-0.004-0.005-0.007-0.007L4.201,40l25.668,25.735c0.002-0.002,0.005-0.005,0.007-0.007
			c6.979,6.853,16.052,10.28,25.124,10.28c9.073,0,18.146-3.427,25.124-10.28c0.002,0.002,0.004,0.005,0.007,0.007L105.799,40
			L80.131,14.265z M76.273,60.51l-0.636,0.625C70.092,66.579,62.763,69.578,55,69.578s-15.092-2.999-20.637-8.443l-0.636-0.625
			L13.271,40l20.458-20.512l0.635-0.623C39.907,13.42,47.237,10.422,55,10.422s15.092,2.998,20.637,8.443l0.635,0.623L96.729,40
			L76.273,60.51z M54.917,22.036c-9.925,0-18,8.075-18,18.001s8.075,18.001,18,18.001s18-8.075,18-18.001
			S64.842,22.036,54.917,22.036z M54.917,51.033c-6.066,0-11.001-4.933-11.001-10.996s4.935-10.995,11.001-10.995
			s11.001,4.932,11.001,10.995S60.983,51.033,54.917,51.033z"/>
	</g>
</g>
</svg>
