<?xml version="1.0" encoding="utf-8"?>
<!-- Generator: Adobe Illustrator 17.0.2, SVG Export Plug-In . SVG Version: 6.00 Build 0)  -->
<!DOCTYPE svg PUBLIC "-//W3C//DTD SVG 1.1//EN" "http://www.w3.org/Graphics/SVG/1.1/DTD/svg11.dtd">
<svg version="1.1" id="Layer_1" xmlns="http://www.w3.org/2000/svg" xmlns:xlink="http://www.w3.org/1999/xlink" x="0px" y="0px"
	 width="110px" height="80px" viewBox="0 0 110 80" enable-background="new 0 0 110 80" xml:space="preserve">
<path fill="#CACACA" d="M18.031,4v71.996L92,76V4H18.031z M86.018,10L86,26H24V10H86.018z M24,48V32l28.018-0.003L52,48H24z
	 M52.018,53.997L52,70H41V54L52.018,53.997z M58,53.997L69,54v16H58V53.997z M58,48V31.997h28.018V48H58z M24,54l11.018-0.003V70H24
	V54z M75,70V54h11v16H75z"/>
</svg>
