<?xml version="1.0" encoding="utf-8"?>
<!-- Generator: Adobe Illustrator 17.0.2, SVG Export Plug-In . SVG Version: 6.00 Build 0)  -->
<!DOCTYPE svg PUBLIC "-//W3C//DTD SVG 1.1//EN" "http://www.w3.org/Graphics/SVG/1.1/DTD/svg11.dtd">
<svg version="1.1" id="Layer_1" xmlns="http://www.w3.org/2000/svg" xmlns:xlink="http://www.w3.org/1999/xlink" x="0px" y="0px"
	 width="110px" height="80px" viewBox="0 0 110 80" enable-background="new 0 0 110 80" xml:space="preserve">
<path fill="#CACACA" d="M102.994,22.537L81.068,0.503L63.689,17.967l-4.549,4.571L46.311,35.43L28.933,17.967L7.006,40
	l21.927,22.034l0,0l17.378,17.463l17.378-17.463l0,0L85.616,40l0,0L102.994,22.537z M16.103,40l12.83-12.892L41.763,40
	l-12.83,12.892L16.103,40z M46.311,70.355l-12.83-12.892l12.83-12.892l12.83,12.892L46.311,70.355z M63.689,52.893L50.86,40
	l12.83-12.892L76.519,40L63.689,52.893z M68.238,22.537l12.83-12.892l12.829,12.892L81.068,35.43L68.238,22.537z"/>
</svg>
