<?xml version="1.0" encoding="utf-8"?>
<!-- Generator: Adobe Illustrator 17.0.2, SVG Export Plug-In . SVG Version: 6.00 Build 0)  -->
<!DOCTYPE svg PUBLIC "-//W3C//DTD SVG 1.1//EN" "http://www.w3.org/Graphics/SVG/1.1/DTD/svg11.dtd">
<svg version="1.1" id="Layer_1" xmlns="http://www.w3.org/2000/svg" xmlns:xlink="http://www.w3.org/1999/xlink" x="0px" y="0px"
	 width="110px" height="80px" viewBox="0 0 110 80" enable-background="new 0 0 110 80" xml:space="preserve">
<path fill="#CACACA" d="M54.516,4c-20.15,0-36.484,16.342-36.484,36.5S34.366,77,54.516,77C74.665,77,91,60.658,91,40.5
	S74.665,4,54.516,4z M84.28,43.954l-22.444-5.125l17.99-14.353c2.945,4.639,4.659,10.134,4.659,16.025
	C84.485,41.668,84.411,42.819,84.28,43.954z M75.764,19.379L57.773,33.732V10.698C64.771,11.458,71.053,14.636,75.764,19.379z
	 M51.258,10.698v23.034L33.267,19.379C37.979,14.636,44.261,11.459,51.258,10.698z M29.205,24.475l17.99,14.353l-22.444,5.125
	c-0.131-1.134-0.205-2.285-0.205-3.454C24.546,34.609,26.26,29.114,29.205,24.475z M26.202,50.308l22.443-5.125L38.66,65.926
	C32.908,62.323,28.463,56.824,26.202,50.308z M44.526,68.763l9.989-20.752l9.989,20.752c-3.127,1.109-6.487,1.719-9.989,1.719
	C51.014,70.482,47.653,69.872,44.526,68.763z M70.371,65.926l-9.985-20.742l22.444,5.125C80.568,56.824,76.123,62.323,70.371,65.926
	z"/>
</svg>
