<?xml version="1.0" encoding="utf-8"?>
<!-- Generator: Adobe Illustrator 17.0.2, SVG Export Plug-In . SVG Version: 6.00 Build 0)  -->
<!DOCTYPE svg PUBLIC "-//W3C//DTD SVG 1.1//EN" "http://www.w3.org/Graphics/SVG/1.1/DTD/svg11.dtd">
<svg version="1.1" id="Layer_1" xmlns="http://www.w3.org/2000/svg" xmlns:xlink="http://www.w3.org/1999/xlink" x="0px" y="0px"
	 width="110px" height="80px" viewBox="0 0 110 80" enable-background="new 0 0 110 80" xml:space="preserve">
<g>
	<g>
		<path fill="#CACACA" d="M55,21.998c-9.925,0-18,8.075-18,18.001S45.075,58,55,58s18-8.075,18-18.001
			C73,30.074,64.925,21.998,55,21.998z M55,51c-6.066,0-11.001-4.937-11.001-11S48.934,29.005,55,29.005S66.002,33.937,66.002,40
			C66.001,46.063,61.066,51,55,51z M75.503,4.008H34.497L13.994,40l20.503,35.992h41.006L96.006,40L75.503,4.008z M71.55,69.053
			h-33.1L21.899,40l16.55-29.053H71.55L88.101,40L71.55,69.053z"/>
	</g>
</g>
</svg>
